<svg fill="none" height="32" viewBox="0 0 32 32" width="32" xmlns="http://www.w3.org/2000/svg"><path d="m2 11.9556c0-3.48482 0-5.2272.67818-6.55821.59655-1.17078 1.54843-2.12266 2.71921-2.71921 1.33101-.67818 3.07339-.67818 6.55821-.67818h8.0888c3.4848 0 5.2272 0 6.5582.67818 1.1708.59655 2.1227 1.54843 2.7192 2.71921.6782 1.33101.6782 3.07339.6782 6.55821v8.0888c0 3.4848 0 5.2272-.6782 6.5582-.5965 1.1708-1.5484 2.1227-2.7192 2.7192-1.331.6782-3.0734.6782-6.5582.6782h-8.0888c-3.48482 0-5.2272 0-6.55821-.6782-1.17078-.5965-2.12266-1.5484-2.71921-2.7192-.67818-1.331-.67818-3.0734-.67818-6.5582z" fill="#fff"/><path clip-rule="evenodd" d="m24 12.8116-.0001.0425c-.0001.0179-.0003.0358-.0005.0537.0004.0209.0006.042.0006.0632 0 3.3363-2.5993 6.2894-4.3386 8.2657-.5047.5734-.937 1.0646-1.2124 1.459-.9796 1.4029-1.4966 2.9227-1.6327 3.5072 0 .4402-.3654.7971-.8163.7971s-.8163-.3569-.8163-.7971c-.1361-.5845-.6531-2.1043-1.6327-3.5072-.2754-.3944-.7077-.8856-1.2124-1.459-1.7393-1.9763-4.3386-4.9294-4.3386-8.2657 0-.0212.0002-.0423.0006-.0632-.0004-.032-.0006-.0641-.0006-.0962 0-4.31424 3.5817-7.8116 8-7.8116s8 3.49736 8 7.8116zm-8 2.8696c1.7132 0 3.102-1.3562 3.102-3.029 0-1.6729-1.3888-3.02901-3.102-3.02901s-3.102 1.35611-3.102 3.02901c0 1.6728 1.3888 3.029 3.102 3.029z" fill="#34a851" fill-rule="evenodd"/><path d="m23.1054 9.21856c-.9796-1.8431-2.6893-3.25679-4.755-3.87579l-4.5945 5.21873c.5649-.57798 1.3615-.93804 2.2443-.93804 1.7132 0 3.102 1.35614 3.102 3.02894 0 .6825-.2311 1.3122-.6211 1.8187z" fill="#4285f5"/><path d="m12.4311 21.3425c-.0307-.0349-.0616-.07-.0928-.1054-1.1465-1.3027-2.66668-3.0298-3.56975-5.0114l4.77535-5.4239c-.4052.5118-.6463 1.1538-.6463 1.8508 0 1.6728 1.3889 3.029 3.1021 3.029.8678 0 1.6524-.348 2.2154-.9089z" fill="#f9bb0e"/><path d="m9.89288 7.76562c-1.18081 1.36123-1.89288 3.12248-1.89288 5.04608 0 .0321.0002.0642.0006.0962-.0004.0209-.0006.042-.0006.0632 0 1.1371.30196 2.2298.76889 3.2543l4.76731-5.4148z" fill="#e74335"/><path d="m18.3499 5.34254c-.7431-.22266-1.5323-.34254-2.3502-.34254-2.4483 0-4.6397 1.07387-6.10712 2.76553l3.64332 3.04497.0079-.009c.0663-.0837.1369-.164.2116-.2404z" fill="#1a73e6"/></svg>